#N canvas 413 26 993 838 10;
#X obj 581 88 soundfiler;
#X floatatom 581 113 10 0 0 0 - - -;
#X obj 106 170 hsl 128 15 0 1 0 0 empty empty empty -2 -8 0 10 -262144
-1 -1 8414 1;
#X obj 165 226 *;
#X obj 344 118 / 44.1;
#X text 109 151 position in buffer (ms);
#X text -21 417 playpos (ms) attack (ms) sustain (ms) release (ms)
speed;
#X floatatom 123 302 5 0 0 0 - - -;
#X floatatom 167 342 5 0 0 0 - - -;
#X floatatom 331 396 5 0 0 0 - - -;
#X text 372 94 sample to ms;
#N canvas 576 565 574 360 env 0;
#X obj 111 52 samplerate~;
#X obj 111 86 / 1024;
#X obj 111 120 osc~;
#X msg 152 109 0;
#X obj 111 154 *~ -0.5;
#X obj 111 188 +~ 0.5;
#X obj 92 222 tabwrite~ wnd;
#X obj 188 172 table wnd 1024;
#X obj 98 25 bng 15 250 50 0 empty empty empty 17 7 0 10 -262144 -1
-1;
#X obj 162 19 loadbang;
#X connect 0 0 1 0;
#X connect 1 0 2 0;
#X connect 2 0 4 0;
#X connect 3 0 2 1;
#X connect 4 0 5 0;
#X connect 5 0 6 0;
#X connect 8 0 0 0;
#X connect 8 0 6 0;
#X connect 8 0 3 0;
#X connect 9 0 8 0;
#X restore 656 113 pd env;
#X obj 452 262 catch~ bus;
#X obj 596 398 *~;
#X obj 590 426 dac~;
#X obj 632 207 vline~;
#X obj 632 184 pack 0 5;
#X obj 632 159 dbtorms;
#X obj 634 138 hsl 128 15 0 127 0 0 empty empty empty -2 -8 0 10 -262144
-1 -1 11700 1;
#X obj 75 300 t b f;
#X obj 659 88 table sample1;
#X msg 11 300 sample1;
#X obj 11 323 symbol;
#X symbolatom 11 347 10 0 0 0 - - -;
#X obj 217 90 / 100;
#X obj 188 32 tgl 15 0 empty empty empty 17 7 0 10 -262144 -1 -1 1
1;
#X floatatom 291 35 5 0 0 0 - - -;
#X floatatom 259 90 5 0 0 0 - - -;
#X obj 99 134 +;
#X obj 64 57 / 800;
#X floatatom 64 32 5 0 0 0 brushingStrength brushingStrength -;
#X obj 216 38 metro 3000;
#X obj 216 64 random 80;
#X obj 68 565 netreceive 32000;
#X msg 68 594 \; brushing 0 \;;
#X floatatom 525 113 5 0 0 0 z_(roll) z -;
#X floatatom 300 199 5 0 0 0 brushingAcc brushingAcc -;
#X floatatom 331 354 5 0 0 0 - - -;
#X obj 330 290 - 1;
#X obj 330 311 abs;
#X obj 331 374 + 1;
#X obj 510 292 lop~;
#X obj 526 248 * 300;
#X obj 526 202 + 1;
#X floatatom 546 276 5 0 0 0 - - -;
#X obj 525 180 abs;
#X obj 525 135 / 360;
#X obj 525 158 - 0.5;
#X floatatom 356 181 5 0 0 0 brushingStrength brushingStrength -;
#X msg 581 59 read -resize brush.wav sample1;
#X obj 581 34 loadbang;
#X floatatom 142 323 5 0 0 0 - - -;
#X obj 331 332 / -4;
#X obj 525 226 pow 10;
#X obj 64 92 speedlim 400;
#X floatatom 388 246 5 0 0 0 - - -;
#X obj 330 247 min 300;
#X obj 330 269 / 300;
#X floatatom 84 715 5 0 0 0 y_(yaw) y -;
#X text 122 763 Brush hairs facing you when tip on left: z=0 when tip
on right z=180;
#X text 121 703 Brush tip facing: left: y = 0-180 right: y = 180-360
;
#X floatatom 85 774 5 0 0 0 z_(roll) z -;
#X obj 521 318 hip~ 200;
#X obj 775 180 loadbang;
#X obj 719 248 bng 15 250 50 0 empty enemyDeath enemyDeath 17 7 0 10
-262144 -1 -1;
#X obj 816 229 table death;
#X msg 775 205 read -resize death.wav death;
#X obj 776 261 soundfiler;
#X floatatom 776 286 10 0 0 0 - - -;
#X obj 636 354 *~;
#X obj 673 308 random 5;
#X obj 738 353 hsl 128 15 0 1 0 0 empty empty empty -2 -8 0 10 -262144
-1 -1 0 1;
#X obj 750 376 *;
#X text 530 515 playpos (ms) attack (ms) sustain (ms) release (ms)
speed;
#X floatatom 674 400 5 0 0 0 - - -;
#X floatatom 718 440 5 0 0 0 - - -;
#X floatatom 883 403 5 0 0 0 enemyDeathScale enemyDeathScale -;
#X obj 626 398 t b f;
#X obj 515 422 symbol;
#X symbolatom 515 446 10 0 0 0 - - -;
#X floatatom 693 421 5 0 0 0 - - -;
#X msg 515 399 death;
#X obj 102 400 pack s 0 100 400 50 1;
#X obj 81 441 samplegranular wnd 512 bus;
#X obj 632 539 samplegranular wnd 512 bus1;
#X obj 645 275 catch~ bus1;
#X msg 735 323 0;
#X obj 780 326 / 44.1;
#X obj 500 368 loadbang;
#X obj 8 253 loadbang;
#X obj 653 497 pack s 0 100 1000 50 1;
#X floatatom 883 471 5 0 0 0 - - -;
#X obj 883 424 * -1;
#X obj 883 448 + 3;
#X obj 673 330 +;
#X connect 0 0 1 0;
#X connect 0 0 4 0;
#X connect 2 0 3 0;
#X connect 3 0 19 0;
#X connect 4 0 3 1;
#X connect 7 0 82 2;
#X connect 8 0 82 4;
#X connect 9 0 82 5;
#X connect 12 0 41 0;
#X connect 13 0 14 0;
#X connect 13 0 14 1;
#X connect 15 0 13 1;
#X connect 16 0 15 0;
#X connect 17 0 16 0;
#X connect 18 0 17 0;
#X connect 19 0 82 0;
#X connect 19 1 82 1;
#X connect 21 0 22 0;
#X connect 22 0 23 0;
#X connect 22 0 82 0;
#X connect 24 0 27 0;
#X connect 24 0 28 1;
#X connect 25 0 31 0;
#X connect 26 0 31 1;
#X connect 28 0 2 0;
#X connect 29 0 54 0;
#X connect 30 0 29 0;
#X connect 31 0 32 0;
#X connect 32 0 24 0;
#X connect 33 0 34 0;
#X connect 35 0 46 0;
#X connect 37 0 40 0;
#X connect 38 0 39 0;
#X connect 39 0 52 0;
#X connect 40 0 9 0;
#X connect 41 0 62 0;
#X connect 42 0 41 1;
#X connect 42 0 44 0;
#X connect 43 0 53 0;
#X connect 45 0 43 0;
#X connect 46 0 47 0;
#X connect 47 0 45 0;
#X connect 48 0 56 0;
#X connect 49 0 0 0;
#X connect 50 0 49 0;
#X connect 51 0 82 3;
#X connect 52 0 37 0;
#X connect 53 0 42 0;
#X connect 54 0 28 0;
#X connect 55 0 56 1;
#X connect 55 0 57 1;
#X connect 56 0 57 0;
#X connect 57 0 38 0;
#X connect 62 0 13 0;
#X connect 63 0 66 0;
#X connect 64 0 70 0;
#X connect 64 0 86 0;
#X connect 66 0 67 0;
#X connect 67 0 68 0;
#X connect 67 0 87 0;
#X connect 69 0 13 0;
#X connect 70 0 94 0;
#X connect 71 0 72 0;
#X connect 72 0 77 0;
#X connect 74 0 90 2;
#X connect 75 0 90 4;
#X connect 76 0 92 0;
#X connect 76 0 94 1;
#X connect 77 0 90 0;
#X connect 77 1 90 1;
#X connect 78 0 79 0;
#X connect 78 0 90 0;
#X connect 80 0 90 3;
#X connect 81 0 78 0;
#X connect 82 0 83 0;
#X connect 85 0 69 0;
#X connect 86 0 71 0;
#X connect 87 0 72 1;
#X connect 88 0 81 0;
#X connect 89 0 21 0;
#X connect 90 0 84 0;
#X connect 91 0 90 5;
#X connect 92 0 93 0;
#X connect 93 0 91 0;
#X connect 94 0 69 1;
