#N canvas 299 63 748 500 10;
#X text 9 5 your basic sampling instrument;
#N canvas 0 22 450 300 (subpatch) 0;
#X array mtable 349753 float 2;
#X coords 0 1 349753 -1 200 140 1;
#X restore 487 24 graph;
#X obj 473 187 adc~;
#X obj 439 194 bng 15 250 50 0 empty empty empty 0 -6 0 8 -262144 -1
-1;
#X text 517 187 sampling from the microphone;
#X obj 9 468 dac~;
#X obj 10 318 pack f f;
#X floatatom 155 231 8 0 0 0 - - -;
#X obj 475 364 soundfiler;
#X text 472 319 reading from a file;
#X obj 10 195 t b b;
#X obj 235 108 mtof;
#X floatatom 235 88 5 0 0 0 - - -;
#X floatatom 235 131 5 0 0 0 - - -;
#X obj 235 42 loadbang;
#X floatatom 303 61 5 0 0 2 pitch pitch -;
#X floatatom 299 110 5 0 0 0 - - -;
#X obj 234 162 /;
#X obj 278 133 t b f;
#X floatatom 233 188 5 0 0 0 - - -;
#X obj 10 99 tgl 15 0 empty empty empty 0 -6 0 8 -262144 -1 -1 1 1
;
#X text 82 309 a simple line with messages to go to the start or end
of sample;
#X floatatom 61 62 5 0 0 2 brushingAcc brushingAcc -;
#X obj 10 352 vline~;
#X msg 475 286 \; mtable normalize;
#X obj 10 400 tabread4~ mtable;
#X floatatom 476 389 8 0 0 0 - - -;
#X msg 235 65 60;
#X obj 547 390 / 44.1;
#X floatatom 600 393 8 0 0 0 - - -;
#X obj 470 225 tabwrite~ mtable;
#X obj 66 245 pack 0 0;
#X msg 475 413 set \$1;
#X text 280 211 fine tuning;
#X obj 233 210 * 1000;
#X obj 83 463 dbtorms;
#X obj 10 441 *~;
#X obj 85 440 hsl 128 15 0 100 0 0 empty empty empty -2 -8 0 10 -262144
-1 -1 11900 1;
#X text 471 464 modified from Tom Erbe's exercise;
#X msg 12 265 349753;
#X text 477 476 Sound and Music Interaction 2014;
#X msg 475 340 read -resize brush.wav mtable;
#X obj 10 124 metro 290;
#X obj 304 82 mtof 10;
#X obj 367 17 netreceive 32000;
#X msg 367 46 \; brushing 0 \;;
#X floatatom 181 402 5 0 0 0 brushing brushing -;
#X obj 64 90 abs;
#X connect 2 0 30 0;
#X connect 3 0 30 0;
#X connect 6 0 23 0;
#X connect 7 0 6 1;
#X connect 8 0 26 0;
#X connect 10 0 39 0;
#X connect 10 1 31 0;
#X connect 11 0 13 0;
#X connect 12 0 11 0;
#X connect 13 0 17 0;
#X connect 14 0 27 0;
#X connect 15 0 43 0;
#X connect 16 0 18 0;
#X connect 17 0 19 0;
#X connect 18 0 17 0;
#X connect 18 1 17 1;
#X connect 19 0 34 0;
#X connect 20 0 42 0;
#X connect 22 0 47 0;
#X connect 23 0 25 0;
#X connect 25 0 36 0;
#X connect 26 0 28 0;
#X connect 26 0 32 0;
#X connect 27 0 12 0;
#X connect 28 0 29 0;
#X connect 31 0 23 0;
#X connect 32 0 39 0;
#X connect 34 0 7 0;
#X connect 35 0 36 1;
#X connect 36 0 5 0;
#X connect 36 0 5 1;
#X connect 37 0 35 0;
#X connect 39 0 6 0;
#X connect 41 0 8 0;
#X connect 42 0 10 0;
#X connect 43 0 16 0;
#X connect 44 0 45 0;
#X connect 46 0 36 1;
#X connect 47 0 42 1;
